<?xml version="1.0" encoding="UTF-8" standalone="no"?>
<!-- Created with Inkscape (http://www.inkscape.org/) -->

<svg
   width="43.681992mm"
   height="43.07906mm"
   viewBox="0 0 43.681992 43.07906"
   version="1.1"
   id="svg64059"
   xmlns="http://www.w3.org/2000/svg"
   xmlns:svg="http://www.w3.org/2000/svg">
  <defs
     id="defs64056" />
  <g
     id="layer1"
     transform="translate(-95.712229,-124.06616)">
    <g
       id="g58781"
       transform="translate(226.64615,-207.82021)">
      <path
         id="path31-9-9-0-5-9-6-2-9"
         style="fill:#4d251d;fill-rule:evenodd;stroke-width:3.69453"
         transform="matrix(0.14841873,0.00957006,-0.0095868,0.14815945,-138.83058,331.92536)"
         d="M 284.08643,267.17061 C 272.78491,273.69555 166.1004,281.69044 153.95262,276.92278 141.80484,272.15513 69.037483,193.73056 65.190967,181.26046 61.344451,168.79036 77.289541,63.001629 84.640796,52.21932 91.99205,41.437012 184.64261,-12.054809 197.65599,-13.030026 c 13.01338,-0.975218 112.60165,38.110304 121.47782,47.676536 8.87616,9.566232 40.41014,111.7969 38.46516,124.70101 -1.94498,12.90412 -62.21102,101.29816 -73.51254,107.82309 z" />
      <path
         id="path31-9-1-9-2-3-3-1-0-2"
         style="fill:#dd3e04;fill-rule:evenodd"
         transform="matrix(0.12531133,0.00809424,-0.00809424,0.12531133,-134.20796,335.36233)"
         d="m 284.08643,267.17061 c -22.60304,13.04987 -105.83824,19.28748 -130.13381,9.75217 -24.29556,-9.5353 -81.068621,-70.72212 -88.761653,-95.66232 -7.693033,-24.9402 4.74732,-107.476522 19.449829,-129.04114 14.702508,-21.564617 86.988434,-63.298911 113.015194,-65.249346 26.02676,-1.950435 103.72549,28.544071 121.47782,47.676536 17.75233,19.132465 42.35513,98.89279 38.46516,124.70101 -3.88997,25.80823 -50.9095,94.77322 -73.51254,107.82309 z" />
      <path
         id="path50315-7-9"
         style="fill:#ffb600;stroke-width:1.35486"
         d="m -96.982752,354.21252 a 12.156767,12.156767 0 0 1 -12.156768,12.15677 12.156767,12.156767 0 0 1 -12.15677,-12.15677 12.156767,12.156767 0 0 1 12.15677,-12.15676 12.156767,12.156767 0 0 1 12.156768,12.15676 z" />
    </g>
  </g>
</svg>
